# xmcd
#
# Track frame offsets: 
#        150
#        9614
#        23904
#        35464
#        50231
#        67592
#        82096
#        94376
#        109774
#        126064
#        143301
#        157343
#        166372
#        177033
#        190473
#        207247
#        219676
#        229788
#        247449
#        259603
#        276653
#
# Disc length: 3909 seconds
#
# Revision: 2
# Processed by: cddbd v1.5.2PL0 Copyright (c) Steve Scherf et al.
# Submitted via: ExactAudioCopy v0.99pb4
#
DISCID=3b0f4315
DTITLE=Various Artist - We Can Fly Volume 2
DYEAR=2008
DGENRE=Psychedelic Rock
TTITLE0=Shy Limbs - Trick Or Two
TTITLE1=Brainbox - Amsterdam, The First Days
TTITLE2=The Cedars - Hide If You Want To Hide
TTITLE3=Pugh - Love Love Love
TTITLE4=The Lords - Don't Mince Matter
TTITLE5=Nite People - Love, Love, Love, Love, Love
TTITLE6=The Montanas - Difference of Opinion
TTITLE7=The Julian Kirsch - Clever Little Man
TTITLE8=Blonde On Blonde - All Day And All Night
TTITLE9=Avalanche - Rabbits
TTITLE10=West Coast Consortium - Colour Sergeant Lillywhite
TTITLE11=Tages - Fuzzy Patterns
TTITLE12=The Mirage - Hold On
TTITLE13=The Petards - Tartarex
TTITLE14=The Bystanders - Cave Of Clear Light
TTITLE15=A.P. Dangerfield - Conversations (In A Station Light Refreshm
TTITLE15=ent Bar)
TTITLE16=A.P. Dangerfield - Further Conversations
TTITLE17=Blinkers - Original Sin
TTITLE18=Danny McCulloch - Colour Of The Sunset
TTITLE19=Joy Unlimited - Mr. Pseudonym
TTITLE20=Moonshine - Garden of Men
EXTD=
EXTT0=
EXTT1=
EXTT2=
EXTT3=
EXTT4=
EXTT5=
EXTT6=
EXTT7=
EXTT8=
EXTT9=
EXTT10=
EXTT11=
EXTT12=
EXTT13=
EXTT14=
EXTT15=
EXTT16=
EXTT17=
EXTT18=
EXTT19=
EXTT20=
PLAYORDER=
